# xmcd CD database file
# Copyright (C) 1995 Ti Kan
#
# Track frame offsets:
#	150
#	15997
#	31352
#	48395
#	62985
#	79741
#	98153
#	117588
#	136468
#	153048
#	170901
#	187636
#
# Disc length: 2705 seconds
#
# Revision: 1
# Processed by: cddbd v1.5.1PL2 Copyright (c) Steve Scherf et al.
# Submitted via: NotifyCDPlayer 1.60beta16
#
DISCID=950a8f0c
DTITLE=SHeDAISY - FortuneTellers's Melody
DYEAR=1900
DGENRE=
TTITLE0=23 Days
TTITLE1=Whatever It Takes
TTITLE2=Bring It On Back
TTITLE3=I'm Taking The Wheel
TTITLE4=God Bless The Canadian Housewife
TTITLE5=Kickin' In
TTITLE6=Healing Side
TTITLE7=What Do I Do Now
TTITLE8=In Terms Of Love
TTITLE9=Burn Down The House
TTITLE10=Out Of My Mind
TTITLE11=She Gets What I Deserve
EXTD=2006 Lyric Street Records\nshedaisy.musiccitynetworks.com
EXTT0=
EXTT1=
EXTT2=
EXTT3=
EXTT4=American released CD has this as God Bless The American Housewifr.
EXTT5=
EXTT6=
EXTT7=
EXTT8=
EXTT9=
EXTT10=
EXTT11=
PLAYORDER=
